# xmcd CD database file
#
# Track frame offsets:
#	150
#	3131
#	14265
#	18311
#	39706
#	46460
#	74148
#	87299
#	89277
#	106970
#	140040
#	143085
#	166475
#	179349
#	190807
#
# Disc length: 3000 seconds
#
# Revision: 0
# Processed by: cddbd v1.5.1PL2 Copyright (c) Steve Scherf et al.
# Submitted via: CDex 1.60beta1-cs1
#
DISCID=ca0bb60f
DTITLE=Cristina Zavalloni - Come valersi non servilmente di Brecht
DYEAR=1998
DGENRE=Jazz
TTITLE0=Presentatore
TTITLE1=Canzone bianca
TTITLE2=Elogio della dimenticanza
TTITLE3=La beffa
TTITLE4=Monologo Stefano
TTITLE5=Boulette
TTITLE6=Nightmare
TTITLE7=Dialogo Michel - Stefano
TTITLE8=Lu tradimento
TTITLE9=Terzo salmo
TTITLE10=La convivenza umana
TTITLE11=La vita è dura
TTITLE12=50 anni fa
TTITLE13=Dialogo tuba - batteria
TTITLE14=Barbara song
EXTD=YEAR: 1998
EXTT0=
EXTT1=
EXTT2=
EXTT3=
EXTT4=
EXTT5=
EXTT6=
EXTT7=
EXTT8=
EXTT9=
EXTT10=
EXTT11=
EXTT12=
EXTT13=
EXTT14=
PLAYORDER=
